<svg width="61" height="64" viewBox="0 0 61 64" fill="none" xmlns="http://www.w3.org/2000/svg">
<path id="Vector" d="M0.0859375 63.71C0.498699 54.7129 2.00115 46.4306 4.5933 38.8629C7.1836 31.2953 10.6343 25.2832 14.9454 20.8267L9.85463 4.68247C9.57946 3.92571 9.51066 3.1269 9.64825 2.28605C9.78584 1.44521 10.0839 0.81457 10.5426 0.394146C10.9095 -0.0262775 11.3222 -0.110361 11.7809 0.141894C12.2395 0.394148 12.6064 0.898655 12.8816 1.65542L17.9723 17.7997C21.9164 14.7726 26.0441 13.2591 30.3551 13.2591C34.6662 13.2591 38.7938 14.7726 42.738 17.7997L47.8287 1.65542C48.1039 0.898655 48.4708 0.394148 48.9294 0.141894C49.388 -0.110361 49.8008 -0.0262775 50.1677 0.394146C50.6263 0.81457 50.9244 1.44521 51.062 2.28605C51.1996 3.1269 51.1308 3.92571 50.8556 4.68247L45.7649 20.8267C50.076 25.2832 53.5276 31.2953 56.1197 38.8629C58.71 46.4306 60.2116 54.7129 60.6243 63.71H0.0859375ZM16.5964 49.836C17.5595 49.836 18.374 49.2255 19.04 48.0046C19.704 46.7871 20.0361 45.2954 20.0361 43.5296C20.0361 41.7639 19.704 40.2722 19.04 39.0546C18.374 37.8337 17.5595 37.2233 16.5964 37.2233C15.6333 37.2233 14.8197 37.8337 14.1556 39.0546C13.4897 40.2722 13.1567 41.7639 13.1567 43.5296C13.1567 45.2954 13.4897 46.7871 14.1556 48.0046C14.8197 49.2255 15.6333 49.836 16.5964 49.836ZM44.1138 49.836C45.077 49.836 45.8915 49.2255 46.5574 48.0046C47.2215 46.7871 47.5535 45.2954 47.5535 43.5296C47.5535 41.7639 47.2215 40.2722 46.5574 39.0546C45.8915 37.8337 45.077 37.2233 44.1138 37.2233C43.1507 37.2233 42.3371 37.8337 41.6731 39.0546C41.0071 40.2722 40.6742 41.7639 40.6742 43.5296C40.6742 45.2954 41.0071 46.7871 41.6731 48.0046C42.3371 49.2255 43.1507 49.836 44.1138 49.836Z" fill="#0DD90D"/>
</svg>
