<svg width="52" height="50" viewBox="0 0 52 50" fill="none" xmlns="http://www.w3.org/2000/svg">
<g id="logos:adobe-photoshop" clip-path="url(#clip0_447_491)">
<path id="Vector" d="M42.7 0H8.5C3.80558 0 0 3.80558 0 8.5V41.42C0 46.1144 3.80558 49.92 8.5 49.92H42.7C47.3944 49.92 51.2 46.1144 51.2 41.42V8.5C51.2 3.80558 47.3944 0 42.7 0Z" fill="#001E36"/>
<path id="Vector_2" d="M11.5293 35.007V13.0594C11.5293 12.8994 11.5981 12.819 11.7355 12.819L11.9529 12.8184L12.3245 12.8144L12.8409 12.8042L14.5709 12.7676L16.4259 12.7332C17.0783 12.722 17.7251 12.716 18.3663 12.716C20.1063 12.716 21.5717 12.9336 22.7627 13.3686C23.837 13.732 24.8168 14.3304 25.6307 15.1202C26.3207 15.8049 26.8539 16.6311 27.1935 17.5418C27.5148 18.428 27.6776 19.3639 27.6745 20.3066C27.6745 22.1388 27.2507 23.65 26.4035 24.8404C25.5749 26.0017 24.419 26.8899 23.0835 27.3916L22.9689 27.4336C21.5743 27.9538 20.0299 28.1418 18.3361 28.1536L18.0729 28.1544L17.6823 28.1524L17.4853 28.1496L17.2657 28.1444L17.1333 28.1392L17.0529 28.135L16.8551 28.1278L16.6133 28.1228L16.2493 28.1202L16.1683 28.12V34.9726C16.1743 35.0146 16.1705 35.0574 16.1571 35.0977C16.1437 35.138 16.121 35.1745 16.091 35.2045C16.061 35.2346 16.0245 35.2572 15.9842 35.2706C15.9439 35.284 15.9011 35.2878 15.8591 35.2818H11.7699C11.6093 35.2818 11.5293 35.1906 11.5293 35.007ZM16.1685 16.9406V24.099C16.4426 24.1211 16.7175 24.1326 16.9925 24.1334H18.1261C18.9076 24.1308 19.6847 24.0144 20.4327 23.788L20.5819 23.7414C21.2624 23.5393 21.8705 23.1458 22.3337 22.6078C22.7641 22.1002 22.9871 21.4008 23.0025 20.5094L23.0035 20.4096C23.0215 19.7452 22.8487 19.0896 22.5053 18.5206C22.1444 17.9703 21.6227 17.5445 21.0113 17.3012C20.2129 16.9909 19.3601 16.8449 18.5039 16.872L18.0683 16.8732L17.7935 16.8756L17.5313 16.879L17.1613 16.8862L16.8913 16.8938L16.7511 16.899L16.5637 16.9078L16.4041 16.9176L16.3131 16.9248L16.2345 16.9324L16.1999 16.9364L16.1685 16.9406ZM40.9545 22.7974C40.3553 22.4895 39.7198 22.2582 39.0629 22.109L38.9109 22.0762C38.1882 21.9104 37.4504 21.819 36.7091 21.8036L36.5239 21.8014C36.0893 21.7896 35.6554 21.8417 35.2359 21.956C34.9689 22.0154 34.7315 22.1674 34.5659 22.3852C34.454 22.5594 34.3944 22.7621 34.3943 22.9692C34.4006 23.17 34.473 23.3632 34.6003 23.5186C34.7826 23.7318 35.0017 23.9104 35.2473 24.046L35.3217 24.0854C35.8114 24.3491 36.316 24.5841 36.8329 24.7894C37.9856 25.1753 39.087 25.7001 40.1129 26.3522C40.8119 26.7933 41.3903 27.4012 41.7961 28.1212C42.1373 28.8029 42.3082 29.5571 42.2941 30.3192C42.3147 31.3258 42.027 32.3146 41.4697 33.153C40.8731 34.004 40.0445 34.6656 39.0825 35.059C38.0751 35.5018 36.8379 35.7304 35.3711 35.7454L35.2187 35.7462C34.3094 35.7554 33.4013 35.6758 32.5075 35.5086L32.3163 35.4714C31.5637 35.3334 30.8311 35.1026 30.1353 34.7844C30.0654 34.7483 30.0063 34.6943 29.964 34.6279C29.9218 34.5615 29.8979 34.485 29.8949 34.4064V30.6628C29.8908 30.6265 29.8966 30.5897 29.9118 30.5564C29.9269 30.5231 29.9508 30.4946 29.9809 30.4738C30.0104 30.4571 30.0443 30.4499 30.078 30.4529C30.1117 30.456 30.1437 30.4693 30.1697 30.491C30.9914 30.9756 31.8837 31.329 32.8143 31.5386C33.6346 31.7443 34.4761 31.8538 35.3217 31.865C36.1229 31.865 36.7125 31.7618 37.0905 31.5558C37.2612 31.4777 37.4056 31.3517 37.5062 31.1933C37.6068 31.0348 37.6593 30.8505 37.6573 30.6628C37.6573 30.3656 37.4855 30.0792 37.1421 29.8042C36.9981 29.689 36.7915 29.5636 36.5227 29.4282L36.3941 29.365L36.2569 29.3004L36.1849 29.2676L36.0341 29.2008C36.0079 29.1894 35.9817 29.1781 35.9555 29.1668L35.7915 29.098L35.7061 29.063L35.5289 28.992L35.4369 28.956L35.2463 28.8826L35.0469 28.808C33.9684 28.4326 32.9458 27.9127 32.0071 27.2624C31.3357 26.7955 30.7829 26.178 30.3929 25.4592C30.0551 24.7824 29.8844 24.0345 29.8949 23.2782C29.893 22.3694 30.1426 21.4779 30.6161 20.7022C31.1561 19.8482 31.9313 19.1682 32.8487 18.7446C33.8561 18.2412 35.1153 17.9892 36.6267 17.9888C37.5119 17.9817 38.3963 18.0449 39.2715 18.1778C39.9052 18.2582 40.5248 18.4258 41.1127 18.6758C41.2073 18.703 41.2835 18.7728 41.3187 18.8648C41.3421 18.9486 41.3535 19.0352 41.3531 19.1224V22.5914C41.3581 22.6734 41.3187 22.752 41.2501 22.7974C41.2042 22.8202 41.1536 22.8321 41.1023 22.8321C41.051 22.8321 41.0004 22.8202 40.9545 22.7974Z" fill="#31A8FF"/>
</g>
<defs>
<clipPath id="clip0_447_491">
<rect width="51.2" height="50" fill="white"/>
</clipPath>
</defs>
</svg>
