<!--?xml version="1.0" standalone="no"?-->              <svg id="sw-js-blob-svg" viewBox="0 0 100 100" xmlns="http://www.w3.org/2000/svg">                    <defs>                         <linearGradient id="sw-gradient" x1="0" x2="1" y1="1" y2="0">                            <stop id="stop1" stop-color="rgba(248, 55, 231.928, 1)" offset="0%"></stop>                            <stop id="stop2" stop-color="rgba(226.611, 29.506, 83.338, 1)" offset="100%"></stop>                        </linearGradient>                    </defs>                <path fill="url(#sw-gradient)" d="M17,-32.4C20.1,-27.7,19.4,-19.2,22.1,-13.2C24.8,-7.2,30.9,-3.6,31,0.1C31.1,3.7,25.2,7.4,21.6,12C18.1,16.5,16.9,21.9,13.7,23C10.5,24.1,5.2,20.9,-1.1,22.8C-7.4,24.7,-14.8,31.6,-19.7,31.5C-24.5,31.3,-26.8,24.1,-30.1,17.6C-33.3,11.2,-37.6,5.6,-35.5,1.2C-33.3,-3.2,-24.9,-6.3,-20,-10C-15.2,-13.6,-13.9,-17.8,-11.2,-22.7C-8.5,-27.7,-4.2,-33.3,1.4,-35.7C7,-38.1,13.9,-37.1,17,-32.4Z" width="100%" height="100%" transform="translate(50 50)" stroke-width="0" style="transition: all 0.3s ease 0s;"></path>              </svg>