<svg width="51" height="77" viewBox="0 0 51 77" fill="none" xmlns="http://www.w3.org/2000/svg">
<path id="Vector" d="M16.7242 59.1308C16.5682 59.2304 16.401 59.3797 16.2227 59.5788C16.0444 59.7779 15.9553 59.977 15.9553 60.1761C15.9553 60.4249 16.1224 60.6365 16.4568 60.8107C16.7911 60.9849 17.2368 61.1342 17.794 61.2586C18.3512 61.3831 18.953 61.4826 19.5993 61.5573C20.2457 61.6319 20.8698 61.6817 21.4715 61.7066C22.0733 61.7315 22.6305 61.7564 23.1431 61.7812C23.6557 61.8061 24.0124 61.8186 24.2129 61.8186C25.6617 61.8186 27.0992 61.719 28.5257 61.5199C29.9521 61.3208 31.3674 61.0595 32.7715 60.736C33.351 61.1591 33.9528 61.5324 34.5768 61.8559C35.2009 62.1794 35.8472 62.4905 36.5159 62.7892C34.5991 63.71 32.6155 64.3819 30.565 64.805C28.5145 65.2281 26.4417 65.4396 24.3467 65.4396C24.0569 65.4396 23.5889 65.4147 22.9425 65.3649C22.2962 65.3152 21.5607 65.2405 20.736 65.141C19.9114 65.0414 19.0756 64.9045 18.2286 64.7303C17.3817 64.5561 16.5905 64.3197 15.855 64.0211C15.1195 63.7224 14.54 63.3864 14.1165 63.0131C13.6931 62.6398 13.459 62.1794 13.4145 61.6319C13.4145 61.2835 13.537 60.9724 13.7822 60.6987C14.0274 60.4249 14.3394 60.1885 14.7183 59.9894C15.0972 59.7903 15.4649 59.6161 15.8216 59.4668C16.1782 59.3175 16.479 59.2055 16.7242 59.1308ZM34.9446 52.71C35.3235 53.1331 35.7581 53.5064 36.2484 53.8299C36.7387 54.1535 37.2402 54.4272 37.7528 54.6512C35.368 55.4227 32.9498 55.9951 30.4981 56.3684C28.0465 56.7417 25.5614 56.9408 23.0428 56.9657C22.7754 56.9657 22.3073 56.9532 21.6387 56.9283C20.9701 56.9035 20.19 56.8537 19.2985 56.779C18.4069 56.7044 17.5154 56.5799 16.6239 56.4057C15.7324 56.2315 14.8855 56.02 14.0831 55.7711C13.2807 55.5222 12.6455 55.2236 12.1775 54.8752C11.7094 54.5268 11.4531 54.1037 11.4085 53.606C11.4085 53.2576 11.5534 52.934 11.8432 52.6354C12.1329 52.3367 12.4895 52.0505 12.913 51.7768C13.3365 51.503 13.7376 51.2915 14.1165 51.1422C14.4954 50.9929 14.8186 50.8684 15.0861 50.7689C14.8855 50.9182 14.6849 51.1422 14.4843 51.4408C14.2837 51.7395 14.1722 52.0381 14.15 52.3367C14.15 52.6105 14.2503 52.8345 14.4508 53.0087C14.6514 53.1829 14.8855 53.3198 15.1529 53.4193C15.4204 53.5189 15.6878 53.5811 15.9553 53.606C16.2227 53.6309 16.4456 53.6682 16.6239 53.718C17.716 53.8673 18.8081 53.9668 19.9002 54.0166C20.9923 54.0664 22.0956 54.1037 23.21 54.1286C25.1936 54.1286 27.1549 54.0042 29.094 53.7553C31.033 53.5064 32.9832 53.158 34.9446 52.71ZM41.1295 15.604C40.6168 15.9275 39.9816 16.3381 39.2238 16.8359C38.4661 17.3336 37.6748 17.8811 36.8502 18.4784C36.0255 19.0757 35.1786 19.7476 34.3094 20.4942C33.4401 21.2408 32.6823 21.9874 32.036 22.734C31.3896 23.4806 30.8325 24.2645 30.3644 25.0858C29.8964 25.9071 29.6846 26.7034 29.7292 27.4749C29.7292 28.3957 29.9298 29.2419 30.331 30.0134C30.7322 30.7849 31.1668 31.5315 31.6348 32.2532C32.1029 32.9749 32.5486 33.7215 32.9721 34.493C33.3956 35.2645 33.5961 36.0982 33.5739 36.9941C33.5739 37.7905 33.3956 38.5744 33.039 39.3459C32.6823 40.1174 32.2366 40.8266 31.7017 41.4737C31.1668 42.1208 30.5761 42.718 29.9298 43.2655C29.2834 43.813 28.6482 44.261 28.0242 44.6094C28.6037 44.0868 29.1051 43.4024 29.5286 42.5563C29.9521 41.7101 30.1638 40.8515 30.1638 39.9805C30.1638 39.1095 29.9409 38.3006 29.4952 37.554C29.0494 36.8074 28.5591 36.036 28.0242 35.2396C27.4893 34.4432 26.9878 33.5473 26.5197 32.5518C26.0517 31.5563 25.8288 30.3991 25.8511 29.0801C25.8511 27.8607 26.0963 26.7159 26.5866 25.6458C27.0769 24.5756 27.7456 23.5926 28.5925 22.6967C29.4395 21.8008 30.3978 20.9671 31.4677 20.1956C32.5375 19.4241 33.6407 18.7397 34.7774 18.1424C35.9141 17.5451 37.0285 17.035 38.1206 16.6119C39.2127 16.1888 40.2157 15.8528 41.1295 15.604ZM46.6123 65.3276C46.8574 65.452 47.136 65.6387 47.4481 65.8876C47.7601 66.1364 47.9273 66.4475 47.9496 66.8208C47.9496 67.3932 47.6041 67.9158 46.9132 68.3887C46.2222 68.8615 45.3307 69.3095 44.2386 69.7326C43.1465 70.1556 41.9541 70.504 40.6614 70.7778C39.3687 71.0516 38.1317 71.3129 36.9505 71.5617C35.7692 71.8106 34.7105 71.9848 33.7745 72.0844C32.8384 72.1839 32.2032 72.271 31.8688 72.3457C28.7485 72.6443 25.6394 72.7936 22.5414 72.7936C19.421 72.7936 16.3007 72.6692 13.1804 72.4203C10.0601 72.1715 6.96211 71.7359 3.88638 71.1138C3.68579 71.0889 3.39605 71.0391 3.01715 70.9644C2.63826 70.8898 2.27051 70.7654 1.9139 70.5911C1.5573 70.4169 1.23412 70.2178 0.94438 69.9939C0.654637 69.7699 0.509766 69.4837 0.509766 69.1353C0.509766 68.7122 0.688069 68.314 1.04468 67.9407C1.40128 67.5674 1.88047 67.2066 2.48224 66.8581C3.08402 66.5097 3.73037 66.1986 4.42129 65.9249C5.11222 65.6511 5.80314 65.4272 6.49407 65.2529C7.18499 65.0787 7.79791 64.9294 8.33282 64.805C8.86773 64.6805 9.31349 64.6308 9.67009 64.6557C9.98212 64.6557 10.283 64.6805 10.5728 64.7303C10.8625 64.7801 11.1522 64.9045 11.442 65.1036H11.2414C10.9739 65.1036 10.4836 65.1658 9.77039 65.2903C9.05717 65.4147 8.33282 65.6014 7.59732 65.8502C6.86182 66.0991 6.21547 66.3853 5.65827 66.7088C5.10107 67.0323 4.81133 67.3932 4.78904 67.7914C4.78904 67.9905 4.86705 68.1523 5.02307 68.2767C5.17908 68.4011 5.3351 68.5007 5.49111 68.5753C6.0706 68.8988 6.8061 69.1726 7.69761 69.3966C8.58913 69.6206 9.5698 69.8197 10.6396 69.9939C11.7094 70.1681 12.8127 70.2925 13.9494 70.3672C15.0861 70.4418 16.2116 70.5165 17.326 70.5911C18.4404 70.6658 19.4545 70.7031 20.3683 70.7031C21.2821 70.7031 22.0956 70.7156 22.8088 70.7405H24.6476C25.5168 70.7405 26.5643 70.7031 27.7902 70.6285C29.016 70.5538 30.3198 70.4916 31.7017 70.4418C33.0835 70.3921 34.51 70.2676 35.981 70.0685C37.452 69.8694 38.8338 69.6828 40.1265 69.5086C41.4192 69.3344 42.6005 69.0731 43.6703 68.7246C44.7401 68.3762 45.5648 68.0278 46.1442 67.6794C46.7237 67.331 47.0358 66.883 47.0803 66.3355C47.0803 65.9373 46.9243 65.6014 46.6123 65.3276ZM37.2179 46.7372C34.3874 47.5585 31.5011 48.106 28.5591 48.3798C25.6171 48.6535 22.6751 48.7904 19.7331 48.7904H18.1952C17.4151 48.7904 16.5125 48.7531 15.4872 48.6784C14.462 48.6037 13.3922 48.5166 12.2778 48.4171C11.1634 48.3175 10.1381 48.1682 9.20205 47.9691C8.26595 47.77 7.49702 47.5336 6.89525 47.2599C6.29348 46.9861 5.98144 46.6377 5.95916 46.2146C5.95916 46.0653 6.00373 45.9284 6.09288 45.804C6.18204 45.6796 6.29348 45.5551 6.4272 45.4307C6.56093 45.3063 6.69466 45.2067 6.82838 45.132C6.96211 45.0574 7.0847 44.9827 7.19614 44.9081C7.90935 44.485 8.70057 44.0992 9.5698 43.7508C10.439 43.4024 11.3194 43.1038 12.2109 42.8549C13.1024 42.606 14.0162 42.4194 14.9523 42.295C15.8884 42.1705 16.7576 42.0959 17.56 42.071H17.9946C17.794 42.1208 17.482 42.2079 17.0585 42.3323C16.6351 42.4567 16.167 42.606 15.6544 42.7803C15.1418 42.9545 14.5957 43.1411 14.0162 43.3402C13.4367 43.5393 12.9241 43.7633 12.4784 44.0121C12.0326 44.261 11.6537 44.485 11.3417 44.6841C11.0297 44.8832 10.8736 45.1196 10.8736 45.3934C10.8736 45.6422 11.0408 45.8413 11.3751 45.9906C11.7094 46.14 12.1552 46.2768 12.7124 46.4013C13.2696 46.5257 13.8602 46.6128 14.4843 46.6626C15.1083 46.7123 15.7435 46.7621 16.3899 46.8119C17.0362 46.8617 17.6046 46.8741 18.0949 46.8492C18.5853 46.8243 18.9864 46.8368 19.2985 46.8866H19.4991C23.0205 46.8866 26.5086 46.7248 29.9632 46.4013C33.4178 46.0777 36.8836 45.5676 40.3605 44.8707C39.8256 45.1445 39.2907 45.4307 38.7558 45.7293C38.2209 46.028 37.7083 46.3639 37.2179 46.7372ZM40.2937 56.0324C41.0069 55.6342 41.8092 55.1241 42.7008 54.5019C43.5923 53.8797 44.4504 53.158 45.275 52.3367C46.0997 51.5155 46.7683 50.6445 47.2809 49.7236C47.7935 48.8028 48.0721 47.8074 48.1167 46.7372C48.1167 46.1151 48.0053 45.5302 47.7824 44.9827C47.5595 44.4352 47.2363 43.9624 46.8129 43.5642C46.3894 43.166 45.9325 42.8549 45.4422 42.6309C44.9518 42.4069 44.4169 42.295 43.8374 42.295C43.4585 42.295 43.0797 42.3323 42.7008 42.4069C42.3219 42.4816 41.9541 42.6185 41.5975 42.8176C41.7535 42.5189 41.9764 42.2825 42.2661 42.1083C42.5559 41.9341 42.8791 41.7848 43.2357 41.6603C43.5923 41.5359 43.9489 41.4488 44.3055 41.399C44.6621 41.3493 44.9964 41.3244 45.3084 41.3244C45.9994 41.3244 46.6791 41.4488 47.3478 41.6977C48.0164 41.9465 48.6182 42.3074 49.1531 42.7803C49.688 43.2531 50.1115 43.8255 50.4235 44.4974C50.7355 45.1694 50.9027 45.9284 50.925 46.7746C50.925 47.6954 50.7467 48.5415 50.3901 49.313C50.0335 50.0845 49.5543 50.7938 48.9525 51.4408C48.3507 52.0879 47.671 52.6852 46.9132 53.2327C46.1554 53.7802 45.3753 54.2406 44.5729 54.6139C43.7706 54.9872 42.9794 55.348 42.1993 55.6965C41.4192 56.0449 40.706 56.2813 40.0596 56.4057L40.2937 56.0324ZM25.8177 41.959C25.0376 41.1875 24.1238 40.2542 23.0763 39.1592C22.0287 38.0642 21.0369 36.8945 20.1008 35.6502C19.1647 34.4059 18.3735 33.1118 17.7272 31.7679C17.0808 30.424 16.7465 29.1299 16.7242 27.8856C16.7242 26.467 17.1254 25.148 17.9278 23.9286C18.7301 22.7091 19.7331 21.527 20.9366 20.3822C22.1402 19.2374 23.444 18.0677 24.8482 16.8732C26.2523 15.6786 27.5561 14.4343 28.7597 13.1402C29.9632 11.8461 30.9662 10.3902 31.7685 8.77256C32.5709 7.15493 32.9721 5.38797 32.9721 3.4717C32.9721 2.27713 32.8384 1.1199 32.5709 0C32.8606 0.348414 33.117 0.746601 33.3398 1.19456C33.5627 1.64252 33.7522 2.11537 33.9082 2.6131C34.0642 3.11084 34.1756 3.63346 34.2425 4.18097C34.3094 4.72847 34.3539 5.21377 34.3762 5.63684C34.3762 7.13004 34.1088 8.56103 33.5739 9.9298C33.039 11.2986 32.3592 12.5927 31.5345 13.8121C30.7099 15.0316 29.7849 16.1764 28.7597 17.2465C27.7344 18.3166 26.7538 19.2872 25.8177 20.1582C25.1713 20.7555 24.525 21.3901 23.8786 22.0621C23.2323 22.734 22.6305 23.4682 22.0733 24.2645C21.5161 25.0609 21.0815 25.9071 20.7695 26.803C20.4574 27.6989 20.2903 28.6446 20.268 29.6401C20.268 30.8097 20.4797 31.9172 20.9032 32.9624C21.3267 34.0077 21.8393 35.028 22.4411 36.0235C23.0428 37.019 23.6557 38.002 24.2798 38.9726C24.9039 39.9432 25.4165 40.9386 25.8177 41.959ZM50.9584 69.2099C50.8916 70.081 50.5461 70.84 49.922 71.4871C49.298 72.1341 48.4845 72.719 47.4815 73.2416C46.4786 73.7642 45.3307 74.1873 44.038 74.5108C42.7453 74.8343 41.3858 75.133 39.9593 75.4067C38.5329 75.6805 37.1288 75.8671 35.7469 75.9667C34.3651 76.0662 33.0278 76.1658 31.7351 76.2653C30.4424 76.3649 29.3392 76.4146 28.4254 76.4146C27.5116 76.4146 26.7538 76.4271 26.152 76.452C25.5948 76.452 24.8482 76.4395 23.9121 76.4146C22.976 76.3897 21.9507 76.3524 20.8363 76.3026C19.7219 76.2529 18.5853 76.1658 17.4263 76.0413C16.2673 75.9169 15.1529 75.78 14.0831 75.6307C13.0133 75.4814 12.0883 75.2823 11.3083 75.0334C10.5282 74.7846 9.94869 74.4984 9.5698 74.1748C11.8654 74.5979 14.1722 74.8841 16.4902 75.0334C18.8081 75.1827 21.1484 75.2574 23.5109 75.2574C26.386 75.2574 29.2723 75.1454 32.1697 74.9214C35.0672 74.6974 37.9311 74.2744 40.7617 73.6522C41.0292 73.6024 41.4526 73.5029 42.0321 73.3536C42.6116 73.2042 43.258 73.03 43.9712 72.8309C44.6844 72.6319 45.4199 72.3954 46.1777 72.1217C46.9355 71.8479 47.6487 71.5617 48.3173 71.2631C48.9859 70.9644 49.5543 70.6409 50.0223 70.2925C50.4904 69.9441 50.8024 69.5832 50.9584 69.2099Z" fill="black"/>
</svg>
