<svg width="50" height="50" viewBox="0 0 50 50" fill="none" xmlns="http://www.w3.org/2000/svg">
<g id="Frame 3">
<path id="Vector" d="M25 50C24.2394 50.0002 23.4921 49.8229 22.8333 49.4857L15.9384 45.866C14.9094 45.3553 15.4108 45.1749 15.7511 45.0696C16.8455 44.7697 17.8934 44.3498 18.8703 43.8196C18.9521 43.786 19.0422 43.7715 19.132 43.7775C19.2219 43.7834 19.3086 43.8096 19.3838 43.8535L24.6818 46.6446C24.7805 46.6909 24.8904 46.7151 25.002 46.7151C25.1136 46.7151 25.2235 46.6909 25.3222 46.6446L45.9827 36.0694C46.0794 36.0181 46.1593 35.9453 46.2148 35.8583C46.2702 35.7713 46.2992 35.673 46.2988 35.573V14.4191C46.2989 14.3176 46.2695 14.2178 46.2134 14.1293C46.1573 14.0408 46.0765 13.9665 45.9787 13.9138L25.3182 3.34757C25.2207 3.29891 25.1108 3.27335 24.999 3.27335C24.8872 3.27335 24.7773 3.29891 24.6798 3.34757L4.03143 13.9174C3.93293 13.969 3.85115 14.0423 3.794 14.1303C3.73685 14.2182 3.70626 14.3177 3.70521 14.4191V35.5641C3.70549 35.6638 3.73566 35.7617 3.79263 35.8476C3.8496 35.9336 3.93132 36.0046 4.02941 36.0534L9.69594 38.9534C12.7668 40.3141 14.6476 38.7106 14.6476 37.0998V16.2227C14.6476 16.0807 14.7113 15.9444 14.8246 15.8439C14.9378 15.7435 15.0915 15.687 15.2517 15.687H17.8695C18.0297 15.687 18.1834 15.7435 18.2967 15.8439C18.41 15.9444 18.4736 16.0807 18.4736 16.2227V37.1016C18.4736 40.7356 16.2425 42.816 12.356 42.816C10.6794 42.8419 9.02903 42.4442 7.59768 41.6695L2.16675 38.907C1.50744 38.5665 0.960378 38.0786 0.580175 37.492C0.199971 36.9054 -7.29894e-05 36.2407 1.4321e-05 35.5641V14.4191C-0.00194537 13.7415 0.197252 13.0754 0.577589 12.4876C0.957926 11.8999 1.506 11.4113 2.16675 11.0709L22.8292 0.49217C23.4948 0.16925 24.2413 0 25 0C25.7587 0 26.5052 0.16925 27.1708 0.49217L47.8313 11.0709C48.4905 11.4107 49.0377 11.8979 49.4182 12.4839C49.7988 13.0698 49.9994 13.734 50 14.4102V35.5641C49.9989 36.2407 49.7981 36.9052 49.4176 37.4917C49.0372 38.0781 48.4903 38.566 47.8313 38.907L27.1708 49.4857C26.5108 49.8234 25.762 50.0008 25 50Z" fill="#83CD29"/>
<path id="Vector_2" d="M21.082 28.4872C21.082 28.3451 21.1457 28.2089 21.259 28.1084C21.3723 28.0079 21.5259 27.9515 21.6861 27.9515H24.3583C24.5011 27.9519 24.6391 27.9971 24.7478 28.0792C24.8566 28.1612 24.929 28.2748 24.9523 28.3997C25.3551 30.8122 26.5633 32.0283 32.0265 32.0283C36.378 32.0283 38.2326 31.1551 38.2326 29.1069C38.2326 27.9265 37.7071 27.0497 30.9431 26.4622C25.2886 25.9657 21.7929 24.855 21.7929 20.8478C21.7929 17.1513 25.3068 14.946 31.1968 14.946C37.8158 14.946 41.0921 16.9835 41.5069 21.355C41.5133 21.428 41.5027 21.5013 41.4758 21.5705C41.4489 21.6397 41.4063 21.7033 41.3507 21.7574C41.295 21.8114 41.2274 21.8548 41.1521 21.8848C41.0768 21.9148 40.9954 21.9308 40.9129 21.9318H38.2226C38.0876 21.9301 37.9572 21.8884 37.8521 21.8133C37.747 21.7382 37.6732 21.6341 37.6426 21.5175C37.0003 18.9799 35.4276 18.1692 31.1988 18.1692C26.4465 18.1692 25.8948 19.6371 25.8948 20.7371C25.8948 22.0693 26.5472 22.4586 32.9628 23.2104C39.312 23.955 42.3285 25.0086 42.3285 28.9658C42.3285 32.9587 38.575 35.2444 32.0285 35.2444C22.9769 35.2552 21.082 31.5748 21.082 28.4872Z" fill="#83CD29"/>
</g>
</svg>
