<svg width="50" height="50" viewBox="0 0 50 50" fill="none" xmlns="http://www.w3.org/2000/svg">
<g id="vaadin:screwdriver" clip-path="url(#clip0_447_494)">
<path id="Vector" d="M25 33.75L27.8125 31.25L25 28.4375L42.8125 10.625L46.5625 9.375L50 2.5L47.8125 0.3125L40.625 3.4375L39.0625 7.1875L21.5625 25L18.75 22.1875L16.25 25C16.25 25 18.75 26.875 15.9375 29.6875C14.375 31.25 11.875 29.375 7.1875 34.0625L0.625 40.625C0.625 40.625 -1.25 43.75 2.5 47.5C6.25 51.25 9.375 49.375 9.375 49.375L15.9375 42.8125C20.3125 38.4375 18.75 35.625 20 34.375C22.8125 31.5625 25 33.75 25 33.75ZM15.3125 32.5L17.5 34.6875L5.625 46.5625L3.4375 44.375L15.3125 32.5Z" fill="#090503"/>
</g>
<defs>
<clipPath id="clip0_447_494">
<rect width="50" height="50" fill="white"/>
</clipPath>
</defs>
</svg>
