<svg width="69" height="66" viewBox="0 0 69 66" fill="none" xmlns="http://www.w3.org/2000/svg">
<g id="Frame 2">
<path id="Vector" d="M34.4769 0C17.2066 0 18.2849 7.40628 18.2849 7.40628L18.3041 15.0794H34.7848V17.3831H11.7583C11.7583 17.3831 0.707031 16.1437 0.707031 33.3758C0.707031 50.6085 10.3528 49.9973 10.3528 49.9973H16.1094V42.0007C16.1094 42.0007 15.799 32.462 25.6012 32.462H41.9471C41.9471 32.462 51.1307 32.6087 51.1307 23.6848V8.92968C51.1307 8.92968 52.5255 0 34.4769 0ZM25.3894 5.16003C25.7789 5.15968 26.1646 5.23528 26.5244 5.3825C26.8843 5.52973 27.2113 5.74568 27.4867 6.018C27.7621 6.29033 27.9804 6.61368 28.1293 6.96956C28.2782 7.32544 28.3546 7.70685 28.3543 8.09198C28.3546 8.47711 28.2782 8.85852 28.1293 9.2144C27.9804 9.57028 27.7621 9.89363 27.4867 10.166C27.2113 10.4383 26.8843 10.6542 26.5244 10.8015C26.1646 10.9487 25.7789 11.0243 25.3894 11.0239C25 11.0243 24.6143 10.9487 24.2544 10.8015C23.8945 10.6542 23.5676 10.4383 23.2922 10.166C23.0168 9.89363 22.7984 9.57028 22.6495 9.2144C22.5007 8.85852 22.4242 8.47711 22.4246 8.09198C22.4242 7.70685 22.5007 7.32544 22.6495 6.96956C22.7984 6.61368 23.0168 6.29033 23.2922 6.018C23.5676 5.74568 23.8945 5.52973 24.2544 5.3825C24.6143 5.23528 25 5.15968 25.3894 5.16003Z" fill="url(#paint0_linear_447_505)"/>
<path id="Vector_2" d="M34.5385 66C51.8087 66 50.7304 58.5937 50.7304 58.5937L50.7112 50.9209H34.2303V48.6172H57.2568C57.2568 48.6172 68.308 49.8566 68.308 32.6239C68.308 15.3915 58.6622 16.0027 58.6622 16.0027H52.9057V23.999C52.9057 23.999 53.216 33.5378 43.4139 33.5378H27.068C27.068 33.5378 17.8844 33.391 17.8844 42.3152V57.0706C17.8844 57.0706 16.4898 66 34.5382 66H34.5385ZM43.6259 60.8405C43.2365 60.8408 42.8508 60.7652 42.4909 60.618C42.131 60.4708 41.804 60.2548 41.5286 59.9825C41.2533 59.7102 41.0349 59.3868 40.886 59.031C40.7371 58.6751 40.6607 58.2937 40.661 57.9085C40.6607 57.5234 40.7371 57.1419 40.8859 56.786C41.0348 56.4301 41.2532 56.1067 41.5286 55.8344C41.8039 55.562 42.1309 55.3461 42.4908 55.1988C42.8507 55.0516 43.2364 54.976 43.6259 54.9763C44.0154 54.976 44.401 55.0516 44.7609 55.1988C45.1208 55.346 45.4478 55.562 45.7232 55.8343C45.9985 56.1066 46.2169 56.43 46.3658 56.7859C46.5147 57.1417 46.5911 57.5232 46.5908 57.9083C46.5911 58.2934 46.5147 58.6748 46.3658 59.0307C46.2169 59.3866 45.9985 59.7099 45.7232 59.9823C45.4478 60.2546 45.1208 60.4705 44.7609 60.6178C44.401 60.765 44.0154 60.8406 43.6259 60.8402V60.8405Z" fill="url(#paint1_linear_447_505)"/>
</g>
<defs>
<linearGradient id="paint0_linear_447_505" x1="7.24467" y1="6.0195" x2="40.5857" y2="39.3983" gradientUnits="userSpaceOnUse">
<stop stop-color="#387EB8"/>
<stop offset="1" stop-color="#366994"/>
</linearGradient>
<linearGradient id="paint1_linear_447_505" x1="27.5092" y1="26.2895" x2="63.332" y2="60.534" gradientUnits="userSpaceOnUse">
<stop stop-color="#FFE052"/>
<stop offset="1" stop-color="#FFC331"/>
</linearGradient>
</defs>
</svg>
