<svg width="50" height="50" viewBox="0 0 50 50" fill="none" xmlns="http://www.w3.org/2000/svg">
<path id="Vector" d="M0 9.02778V40.9722C0 43.3665 0.951138 45.6628 2.64417 47.3558C4.33721 49.0489 6.63346 50 9.02778 50H40.9722C43.3665 50 45.6628 49.0489 47.3558 47.3558C49.0489 45.6628 50 43.3665 50 40.9722V9.02778C50 6.63346 49.0489 4.33721 47.3558 2.64417C45.6628 0.951138 43.3665 0 40.9722 0H9.02778C6.63346 0 4.33721 0.951138 2.64417 2.64417C0.951138 4.33721 0 6.63346 0 9.02778ZM25 18.0556C25.5525 18.0556 26.0824 18.275 26.4731 18.6658C26.8638 19.0564 27.0833 19.5864 27.0833 20.1389V36.8056C27.0833 38.0948 26.5712 39.3312 25.6595 40.2429C24.7479 41.1545 23.5115 41.6667 22.2222 41.6667H18.75C18.1975 41.6667 17.6676 41.4472 17.2769 41.0565C16.8862 40.6658 16.6667 40.1359 16.6667 39.5833C16.6667 39.0308 16.8862 38.5009 17.2769 38.1102C17.6676 37.7195 18.1975 37.5 18.75 37.5H22.2222C22.4064 37.5 22.583 37.4268 22.7133 37.2966C22.8435 37.1664 22.9167 36.9897 22.9167 36.8056V20.1389C22.9167 19.5864 23.1362 19.0564 23.5269 18.6658C23.9176 18.275 24.4475 18.0556 25 18.0556ZM30.5556 22.9167C30.5556 20.2333 32.7333 18.0556 35.4167 18.0556H39.5833C40.1359 18.0556 40.6658 18.275 41.0565 18.6658C41.4472 19.0564 41.6667 19.5864 41.6667 20.1389C41.6667 20.6914 41.4472 21.2213 41.0565 21.612C40.6658 22.0027 40.1359 22.2222 39.5833 22.2222H35.4167C35.2325 22.2222 35.0559 22.2954 34.9256 22.4256C34.7954 22.5559 34.7222 22.7325 34.7222 22.9167V27.0833C34.7222 27.4667 35.0333 27.7778 35.4167 27.7778H36.8056C39.4889 27.7778 41.6667 29.9556 41.6667 32.6389V36.8056C41.6667 38.0948 41.1545 39.3312 40.2429 40.2429C39.3312 41.1545 38.0948 41.6667 36.8056 41.6667H32.6389C32.0864 41.6667 31.5565 41.4472 31.1658 41.0565C30.775 40.6658 30.5556 40.1359 30.5556 39.5833C30.5556 39.0308 30.775 38.5009 31.1658 38.1102C31.5565 37.7195 32.0864 37.5 32.6389 37.5H36.8056C36.9897 37.5 37.1664 37.4268 37.2966 37.2966C37.4268 37.1664 37.5 36.9897 37.5 36.8056V32.6389C37.5 32.4547 37.4268 32.2781 37.2966 32.1478C37.1664 32.0176 36.9897 31.9444 36.8056 31.9444H35.4167C34.1274 31.9444 32.891 31.4323 31.9793 30.5207C31.0677 29.609 30.5556 28.3726 30.5556 27.0833V22.9167Z" fill="#FF7A00"/>
</svg>
