<svg width="55" height="55" viewBox="0 0 55 55" fill="none" xmlns="http://www.w3.org/2000/svg">
<path id="Vector" d="M27.5 22.0955C30.1349 22.0955 32.2837 24.4975 32.2837 27.5C32.2837 30.3595 30.1349 32.7901 27.5 32.7901C24.8651 32.7901 22.7163 30.3595 22.7163 27.5C22.7163 24.4975 24.8651 22.0955 27.5 22.0955ZM15.6558 50.3761C17.2674 51.4627 20.7977 49.8042 24.8651 45.5149C23.5349 43.8278 22.2302 41.9977 21.0023 40.0818C18.9409 39.8613 16.8914 39.5177 14.8628 39.0524C13.5581 45.1718 14.0442 49.3753 15.6558 50.3761ZM17.4721 33.9625L16.7302 32.5041C16.4488 33.3334 16.1674 34.1627 15.9884 34.9633C16.6791 35.1349 17.4465 35.2779 18.2395 35.4208L17.4721 33.9625ZM34.2023 31.7893L36.2744 27.5L34.2023 23.2107C33.4349 21.6952 32.6163 20.3512 31.8744 19.0073C30.493 18.9215 29.0349 18.9215 27.5 18.9215C25.9651 18.9215 24.507 18.9215 23.1256 19.0073C22.3837 20.3512 21.5651 21.6952 20.7977 23.2107L18.7256 27.5L20.7977 31.7893C21.5651 33.3048 22.3837 34.6488 23.1256 35.9927C24.507 36.0785 25.9651 36.0785 27.5 36.0785C29.0349 36.0785 30.493 36.0785 31.8744 35.9927C32.6163 34.6488 33.4349 33.3048 34.2023 31.7893ZM27.5 12.5734C27.014 13.2025 26.5023 13.8601 25.9907 14.6322H29.0093C28.4977 13.8601 27.986 13.2025 27.5 12.5734ZM27.5 42.4266C27.986 41.7975 28.4977 41.1399 29.0093 40.3678H25.9907C26.5023 41.1399 27.014 41.7975 27.5 42.4266ZM39.3186 4.62392C37.7326 3.53731 34.2023 5.19582 30.1349 9.48509C31.4651 11.1722 32.7698 13.0023 33.9977 14.9182C36.0953 15.1469 38.1674 15.4901 40.1372 15.9476C41.4419 9.82823 40.9558 5.62475 39.3186 4.62392ZM37.5279 21.0375L38.2698 22.4959C38.5512 21.6666 38.8326 20.8373 39.0116 20.0367C38.3209 19.8651 37.5535 19.7221 36.7605 19.5792L37.5279 21.0375ZM41.2372 0.877964C44.9977 3.27995 45.407 9.59947 43.8209 16.977C50.3186 19.1216 55 22.6674 55 27.5C55 32.3326 50.3186 35.8784 43.8209 38.023C45.407 45.4005 44.9977 51.72 41.2372 54.122C37.5023 56.524 32.4116 53.7789 27.5 48.546C22.5884 53.7789 17.4977 56.524 13.7372 54.122C10.0023 51.72 9.59302 45.4005 11.1791 38.023C4.6814 35.8784 0 32.3326 0 27.5C0 22.6674 4.6814 19.1216 11.1791 16.977C9.59302 9.59947 10.0023 3.27995 13.7372 0.877964C17.4977 -1.52402 22.5884 1.2211 27.5 6.45401C32.4116 1.2211 37.5023 -1.52402 41.2372 0.877964ZM40.4953 27.5C41.3651 29.6446 42.1326 31.7893 42.7721 33.9625C48.1442 32.161 51.1628 29.5874 51.1628 27.5C51.1628 25.4126 48.1442 22.839 42.7721 21.0375C42.1326 23.2107 41.3651 25.3554 40.4953 27.5ZM14.5047 27.5C13.6349 25.3554 12.8674 23.2107 12.2279 21.0375C6.85581 22.839 3.83721 25.4126 3.83721 27.5C3.83721 29.5874 6.85581 32.161 12.2279 33.9625C12.8674 31.7893 13.6349 29.6446 14.5047 27.5ZM37.5279 33.9625L36.7605 35.4208C37.5535 35.2779 38.3209 35.1349 39.0116 34.9633C38.8326 34.1627 38.5512 33.3334 38.2698 32.5041L37.5279 33.9625ZM30.1349 45.5149C34.2023 49.8042 37.7326 51.4627 39.3186 50.3761C40.9558 49.3753 41.4419 45.1718 40.1372 39.0524C38.1674 39.5099 36.0953 39.8531 33.9977 40.0818C32.7698 41.9977 31.4651 43.8278 30.1349 45.5149ZM17.4721 21.0375L18.2395 19.5792C17.4465 19.7221 16.6791 19.8651 15.9884 20.0367C16.1674 20.8373 16.4488 21.6666 16.7302 22.4959L17.4721 21.0375ZM24.8651 9.48509C20.7977 5.19582 17.2674 3.53731 15.6558 4.62392C14.0442 5.62475 13.5581 9.82823 14.8628 15.9476C16.8914 15.4823 18.9409 15.1387 21.0023 14.9182C22.2302 13.0023 23.5349 11.1722 24.8651 9.48509Z" fill="#20D8E3"/>
</svg>
